<svg width="162" height="35" viewBox="0 0 162 35" fill="none" xmlns="http://www.w3.org/2000/svg" data-v-8cf6d3be=""><g clip-path="url(#clip0_1_15059)"><path d="M32.8871 13.9886L32.8674 13.8964L27.6863 16.637L26.2751 17.3858L23.026 19.1053L21.4857 19.9178L16.7466 22.4322C16.6694 22.4712 16.5799 22.4779 16.4979 22.4507C16.4158 22.4235 16.3479 22.3647 16.309 22.2873L15.8911 21.4221L15.6854 21.0158C15.6571 20.9582 15.6124 20.9102 15.557 20.8778C15.5017 20.8455 15.438 20.8302 15.3741 20.834C15.3101 20.8377 15.2487 20.8603 15.1974 20.8989C15.1462 20.9375 15.1074 20.9904 15.0859 21.051L14.7534 22.0172L14.051 24.0507L13.3946 25.9766L13.3815 26.0139L14.0685 26.1984L18.7595 27.4699L18.7989 27.4457L17.9631 25.7219H17.9762L17.9587 25.6933C17.9541 25.6856 17.949 25.6783 17.9434 25.6714V25.623L18.1928 25.4935C18.189 25.486 18.1838 25.4793 18.1775 25.4737C18.185 25.4786 18.191 25.4854 18.195 25.4935L29.6423 19.5577C29.5811 19.9552 29.5001 20.3482 29.4039 20.7325C28.8352 23.007 27.672 25.088 26.0344 26.7606C25.8988 26.8967 25.7631 27.0307 25.6231 27.1624C25.5159 27.2613 25.4043 27.3579 25.3015 27.4523C25.1395 27.5951 24.9733 27.7334 24.8048 27.8674C24.6363 28.0013 24.4613 28.1331 24.2862 28.2604L24.1965 28.3241L24.1068 28.3856L23.9252 28.5086C23.3735 28.8785 22.7941 29.2052 22.1924 29.4858C21.9736 29.5912 21.7373 29.6922 21.501 29.7845C21.3566 29.8438 21.21 29.8987 21.0634 29.9514C20.9168 30.0041 20.7658 30.0546 20.6258 30.1029L20.4748 30.149C20.4245 30.1666 20.3742 30.1798 20.3217 30.1951C17.5221 31.0048 14.5344 30.8627 11.8237 29.7911L11.7865 29.7757C11.4452 29.6417 11.1126 29.4902 10.7888 29.3365C10.6509 29.2662 10.5131 29.1959 10.3753 29.1169C10.2374 29.0378 10.1061 28.9654 9.97049 28.8973C9.83484 28.8292 9.70794 28.7348 9.57666 28.6513C9.51103 28.6096 9.44539 28.5679 9.38412 28.524C9.06031 28.3044 8.74962 28.0848 8.44987 27.8388C8.32734 27.7422 8.2092 27.6434 8.09323 27.5424L7.74754 27.2349L7.50249 27.0021C7.42153 26.9231 7.34058 26.8418 7.264 26.7628C6.97738 26.4685 6.70607 26.1655 6.45008 25.847C6.28161 25.6274 6.11752 25.4232 5.96217 25.2058C5.55813 24.6402 5.19963 24.0432 4.89008 23.4204C4.88221 23.408 4.87561 23.3947 4.87038 23.3809C4.86226 23.3682 4.85496 23.355 4.84851 23.3414C4.70629 23.0493 4.57064 22.7485 4.4503 22.4454C4.09122 21.5489 3.83291 20.6149 3.68014 19.6609C3.55404 18.9481 3.48599 18.2261 3.47666 17.5022C3.47599 16.9951 3.50521 16.4884 3.56418 15.9848C3.63077 15.3994 3.73602 14.8191 3.87924 14.2477C3.93175 14.0435 3.98864 13.8393 4.0499 13.6394C4.22624 13.0487 4.44563 12.4718 4.70629 11.9134C4.72598 11.8673 4.74567 11.8233 4.76755 11.7794C5.47018 10.319 6.43431 9.00076 7.61189 7.8903C7.86788 7.64654 8.1348 7.41596 8.41049 7.19417L8.58333 7.05582C8.70148 6.96359 8.82182 6.87574 8.94216 6.7879L9.12376 6.65834C9.29223 6.53976 9.46289 6.42556 9.63793 6.31796C9.81296 6.21036 9.98581 6.09836 10.1652 5.99954C10.3446 5.90072 10.524 5.8019 10.7078 5.70967C10.8916 5.61743 11.082 5.5252 11.2723 5.44175C11.3402 5.40881 11.408 5.38027 11.478 5.34952L11.9156 5.17604C12.0622 5.12114 12.2066 5.06843 12.3532 5.01792C13.7288 4.54244 15.1735 4.29977 16.6284 4.29983H16.9041C17.0879 4.29983 17.2695 4.29983 17.4511 4.32179C17.5933 4.32179 17.7333 4.34155 17.8734 4.35473C18.0951 4.37669 18.3139 4.40304 18.5298 4.43379C18.8295 4.47551 19.1249 4.53041 19.4181 4.5941C19.6237 4.63802 19.8272 4.68852 20.0307 4.74123C20.3086 4.81589 20.5799 4.89934 20.849 4.98938C21.0328 5.05306 21.2166 5.11894 21.396 5.19141C21.5754 5.26388 21.7548 5.33635 21.932 5.41101L22.1946 5.53179L22.3893 5.62622C22.5184 5.6899 22.6475 5.75359 22.7744 5.82166L22.9647 5.92487L19.9257 7.49941L14.1385 10.5123L10.9726 12.1462L10.8588 11.9266L10.1521 10.5584C10.123 10.5022 10.0782 10.4556 10.0233 10.4244C9.96828 10.3932 9.90546 10.3787 9.84242 10.3826C9.77939 10.3866 9.71885 10.4088 9.66818 10.4467C9.6175 10.4845 9.57887 10.5363 9.55697 10.5958L8.53301 13.4133L8.34485 13.9227L7.98165 14.9131C7.96463 14.9562 7.95686 15.0024 7.95885 15.0487C7.96084 15.095 7.97255 15.1404 7.9932 15.1818C8.01385 15.2233 8.04298 15.2599 8.07869 15.2893C8.11441 15.3187 8.15589 15.3401 8.20044 15.3523L8.72555 15.4863L13.1277 16.5975L13.2349 16.5382L12.5785 15.2689C12.5392 15.1922 12.5316 15.1031 12.5574 15.0208C12.5833 14.9386 12.6404 14.8699 12.7164 14.8297L16.2587 12.9565L18.3263 11.8585L25.7106 7.95398L28.5549 6.45411C28.599 6.4307 28.637 6.39734 28.666 6.35665C28.695 6.31596 28.7142 6.26906 28.7221 6.21965C28.7299 6.17024 28.7262 6.11968 28.7113 6.07195C28.6963 6.02422 28.6705 5.98064 28.6359 5.94464C26.8926 4.12168 24.7597 2.71979 22.398 1.8447C22.2821 1.80078 22.1683 1.75905 22.0523 1.71952C20.3072 1.11675 18.4741 0.810236 16.6284 0.812574C16.0858 0.812574 15.5505 0.838194 15.0225 0.889435C14.3434 0.954535 13.6689 1.06161 13.003 1.21005C12.5107 1.31985 12.025 1.45161 11.5502 1.60533C11.2964 1.68439 11.047 1.77442 10.7997 1.86446C10.4715 1.98744 10.1433 2.12139 9.83047 2.26633C6.55692 3.74531 3.84439 6.24224 2.09388 9.38797C1.93416 9.67346 1.78538 9.96333 1.64316 10.2664C1.16037 11.2668 0.779906 12.3138 0.507615 13.3913C0.168981 14.7351 -0.00153355 16.1161 1.03911e-05 17.5022C1.03911e-05 17.6098 1.03911e-05 17.7218 1.03911e-05 17.8272C0.0203896 19.0108 0.167091 20.1887 0.4376 21.3408C0.51199 21.6549 0.592945 21.9667 0.684838 22.2763C0.684838 22.2917 0.684838 22.3071 0.700154 22.3246C0.875615 22.9144 1.08454 23.4937 1.32591 24.0595C1.73802 25.0294 2.24057 25.9581 2.82684 26.833C2.99094 27.0724 3.15941 27.3118 3.33444 27.5445C3.67139 27.9837 4.0324 28.423 4.4131 28.838L4.49187 28.9236C5.28563 29.7744 6.16557 30.5398 7.11741 31.2075C7.3362 31.3656 7.57031 31.5171 7.80224 31.6621C10.4467 33.3262 13.5072 34.2034 16.6284 34.1919C17.0945 34.1919 17.5561 34.1743 18.0134 34.1348C20.6559 33.9174 23.2075 33.0648 25.4524 31.6489C25.7806 31.4447 26.1088 31.2272 26.4086 30.9901C27.1122 30.4743 27.7749 29.9045 28.3908 29.286C30.5145 27.1569 32.0224 24.489 32.7536 21.567C32.9184 20.9108 33.0419 20.2448 33.1234 19.573C33.204 18.9371 33.2471 18.297 33.2525 17.6559V17.5022C33.254 16.3214 33.1315 15.1437 32.8871 13.9886ZM17.8602 25.5396V25.5506C17.8592 25.5557 17.8592 25.5609 17.8602 25.5659C17.8597 25.5572 17.8597 25.5484 17.8602 25.5396Z" fill="#001140"></path> <path d="M34.5959 7.65753C34.6408 7.66908 34.6827 7.6902 34.7188 7.71944C34.7549 7.74868 34.7844 7.78537 34.8051 7.82702C34.8259 7.86866 34.8375 7.9143 34.8391 7.96083C34.8407 8.00736 34.8324 8.05371 34.8147 8.09673L33.2743 12.1418C33.2518 12.1999 33.213 12.2503 33.1627 12.2869C33.1124 12.3235 33.0527 12.3449 32.9906 12.3483C32.9286 12.3518 32.8668 12.3373 32.8128 12.3065C32.7587 12.2757 32.7146 12.23 32.6858 12.1747L32.3357 11.4961C32.2953 11.4202 32.2267 11.3634 32.1448 11.3379C32.0629 11.3124 31.9742 11.3204 31.8981 11.36L31.7253 11.4522L31.2877 11.6718L28.614 13.0839L28.0692 13.3737L18.9805 18.1874C18.9129 18.2217 18.8354 18.2311 18.7617 18.2137L18.5429 18.161C18.496 18.1505 18.4521 18.1297 18.4143 18.1001C18.3764 18.0705 18.3456 18.0328 18.3241 17.9897L17.2848 15.875C17.265 15.8371 17.2529 15.7956 17.2492 15.753C17.2454 15.7104 17.2501 15.6675 17.2629 15.6266C17.2757 15.5858 17.2964 15.548 17.3238 15.5152C17.3512 15.4825 17.3848 15.4555 17.4226 15.4358L26.6405 10.5585L27.2028 10.2598L29.8524 8.85874L30.29 8.62597L30.4541 8.53812C30.4917 8.51824 30.5251 8.4911 30.5523 8.45826C30.5795 8.42542 30.6 8.38753 30.6126 8.34674C30.6252 8.30595 30.6296 8.26307 30.6257 8.22055C30.6218 8.17803 30.6096 8.1367 30.5897 8.09892L30.0449 7.04484C30.0202 6.98969 30.0113 6.9287 30.0192 6.86874C30.0271 6.80879 30.0516 6.75224 30.0898 6.70546C30.128 6.65868 30.1784 6.62353 30.2354 6.60395C30.2924 6.58438 30.3538 6.58116 30.4125 6.59466L32.9308 7.23589L34.5959 7.65753Z" fill="#001140"></path></g> <path d="M60.9886 24.6491H58.1329L57.9035 22.6009C57.4445 23.292 56.7561 23.8736 55.8382 24.3456C54.9373 24.8008 53.8495 25.0284 52.5747 25.0284C50.059 25.0284 47.9258 24.1771 46.175 22.4745C44.4242 20.7719 43.5488 18.513 43.5488 15.6978C43.5488 12.8994 44.4497 10.6405 46.2515 8.92107C48.0702 7.20162 50.2545 6.34189 52.8041 6.34189C55.0138 6.34189 56.8156 6.8729 58.2094 7.93492C59.6202 8.99693 60.5721 10.3034 61.065 11.8543L57.6995 13.0427C57.4275 12.1156 56.8751 11.3148 56.0422 10.6405C55.2263 9.94938 54.1469 9.6038 52.8041 9.6038C51.2743 9.6038 49.94 10.1264 48.8011 11.1715C47.6793 12.2167 47.1184 13.7254 47.1184 15.6978C47.1184 17.6364 47.6623 19.1451 48.7502 20.224C49.855 21.3029 51.2148 21.8423 52.8296 21.8423C54.3254 21.8423 55.4728 21.4714 56.2717 20.7297C57.0706 19.9711 57.538 19.1788 57.674 18.3528H51.9627V15.3185H60.9886V24.6491Z" fill="#001140"></path> <path d="M66.7572 17.0126H72.3665C72.3325 16.3215 72.0775 15.7399 71.6016 15.2679C71.1426 14.7959 70.4627 14.5599 69.5618 14.5599C68.7459 14.5599 68.083 14.8127 67.5731 15.3185C67.0631 15.8242 66.7912 16.3889 66.7572 17.0126ZM72.6979 20.2493L75.528 21.0837C75.1881 22.23 74.5167 23.174 73.5138 23.9158C72.5279 24.6575 71.2956 25.0284 69.8168 25.0284C68.015 25.0284 66.4852 24.4299 65.2274 23.233C63.9695 22.0193 63.3406 20.401 63.3406 18.3781C63.3406 16.4564 63.9525 14.8886 65.1764 13.6749C66.4002 12.4443 67.845 11.829 69.5108 11.829C71.4486 11.829 72.9614 12.4021 74.0492 13.5484C75.1541 14.6947 75.7065 16.2709 75.7065 18.277C75.7065 18.4118 75.698 18.5635 75.681 18.7321C75.681 18.9007 75.681 19.0355 75.681 19.1367L75.6555 19.3137H66.6807C66.7147 20.1228 67.0376 20.7971 67.6496 21.3366C68.2615 21.876 68.9924 22.1457 69.8423 22.1457C71.2871 22.1457 72.239 21.5136 72.6979 20.2493Z" fill="#001140"></path> <path d="M82.5584 8.49121V12.2083H85.0825V15.192H82.5584V20.401C82.5584 20.9236 82.6773 21.2944 82.9153 21.5136C83.1533 21.7327 83.5272 21.8423 84.0372 21.8423C84.4961 21.8423 84.8446 21.8086 85.0825 21.7412V24.5226C84.5896 24.7249 83.9522 24.8261 83.1703 24.8261C81.9464 24.8261 80.9776 24.4889 80.2637 23.8146C79.5497 23.1235 79.1928 22.1795 79.1928 20.9826V15.192H76.9236V12.2083H77.561C78.1899 12.2083 78.6659 12.0313 78.9888 11.6773C79.3288 11.3064 79.4988 10.826 79.4988 10.236V8.49121H82.5584Z" fill="#001140"></path> <path d="M99.4638 24.6491H88.1433V6.72118H99.4638V10.0084H91.6619V14.1047H98.7244V17.2149H91.6619V21.3619H99.4638V24.6491Z" fill="#001140"></path> <path d="M114.438 29.4534H111.123V23.41C110.477 24.4383 109.313 24.9525 107.63 24.9525C105.862 24.9525 104.401 24.3372 103.245 23.1066C102.089 21.8592 101.511 20.2914 101.511 18.4034C101.511 16.5491 102.063 15.0066 103.168 13.776C104.29 12.5286 105.743 11.9048 107.528 11.9048C108.514 11.9048 109.313 12.0903 109.925 12.4611C110.554 12.8151 110.979 13.2113 111.2 13.6496V12.2083H114.438V29.4534ZM105.794 15.8495C105.216 16.4732 104.928 17.3245 104.928 18.4034C104.928 19.4823 105.216 20.342 105.794 20.9826C106.389 21.6232 107.137 21.9434 108.038 21.9434C108.939 21.9434 109.678 21.6232 110.256 20.9826C110.851 20.342 111.149 19.4823 111.149 18.4034C111.149 17.3245 110.851 16.4732 110.256 15.8495C109.678 15.2258 108.939 14.9139 108.038 14.9139C107.137 14.9139 106.389 15.2258 105.794 15.8495Z" fill="#001140"></path> <path d="M126.176 24.6491C126.108 24.3119 126.074 23.8652 126.074 23.3089C125.751 23.8652 125.267 24.2866 124.621 24.5732C123.992 24.8429 123.321 24.9778 122.607 24.9778C121.128 24.9778 119.964 24.5142 119.114 23.587C118.264 22.643 117.839 21.4714 117.839 20.0723V12.2083H121.23V19.3895C121.23 20.1313 121.426 20.7381 121.816 21.2101C122.207 21.6653 122.777 21.8929 123.525 21.8929C124.256 21.8929 124.834 21.6737 125.259 21.2354C125.683 20.7803 125.896 20.1818 125.896 19.4401V12.2083H129.287V22.3986C129.287 23.1909 129.329 23.9411 129.414 24.6491H126.176Z" fill="#001140"></path> <path d="M136.297 24.6491H132.906V12.2083H136.297V24.6491ZM132.498 8.1372C132.498 7.56405 132.702 7.07519 133.11 6.67061C133.518 6.24917 134.011 6.03845 134.589 6.03845C135.167 6.03845 135.66 6.24074 136.068 6.64532C136.475 7.0499 136.679 7.54719 136.679 8.1372C136.679 8.6935 136.475 9.17394 136.068 9.57852C135.66 9.98309 135.167 10.1854 134.589 10.1854C134.011 10.1854 133.518 9.98309 133.11 9.57852C132.702 9.17394 132.498 8.6935 132.498 8.1372Z" fill="#001140"></path> <path d="M144.109 8.49121V12.2083H146.633V15.192H144.109V20.401C144.109 20.9236 144.228 21.2944 144.466 21.5136C144.704 21.7327 145.078 21.8423 145.588 21.8423C146.047 21.8423 146.395 21.8086 146.633 21.7412V24.5226C146.14 24.7249 145.503 24.8261 144.721 24.8261C143.497 24.8261 142.528 24.4889 141.814 23.8146C141.1 23.1235 140.743 22.1795 140.743 20.9826V15.192H138.474V12.2083H139.112C139.741 12.2083 140.216 12.0313 140.539 11.6773C140.879 11.3064 141.049 10.826 141.049 10.236V8.49121H144.109Z" fill="#001140"></path> <path d="M154.122 29.5546H150.527L153.485 23.0813L148.156 12.2083H151.955L155.295 19.4907L158.38 12.2083H162L154.122 29.5546Z" fill="#001140"></path> <defs><clipPath id="clip0_1_15059"><rect width="34.8387" height="33.3749" fill="white" transform="translate(0 0.812622)"></rect></clipPath></defs></svg>