<svg width="18" height="18" viewBox="0 0 18 18" fill="none" xmlns="http://www.w3.org/2000/svg" data-v-a55197c0=""><path d="M7.82227 2.35205L8.60273 1.57158C8.9332 1.24111 9.46758 1.24111 9.79453 1.57158L16.6289 8.40244C16.9594 8.73291 16.9594 9.26729 16.6289 9.59424L9.79453 16.4286C9.46406 16.7591 8.92969 16.7591 8.60273 16.4286L7.82227 15.6481C7.48828 15.3142 7.49531 14.7692 7.83633 14.4423L12.0727 10.4063H1.96875C1.50117 10.4063 1.125 10.0302 1.125 9.5626V8.4376C1.125 7.97002 1.50117 7.59385 1.96875 7.59385H12.0727L7.83633 3.55791C7.4918 3.23096 7.48477 2.68604 7.82227 2.35205Z" fill="#4D84FF" data-v-a55197c0=""></path></svg>