<svg width="67" height="67" viewBox="0 0 67 67" fill="none" xmlns="http://www.w3.org/2000/svg">
<rect width="67" height="67" rx="18" fill="#4D84FF"/>
<path d="M24.0625 34.375C22.8387 34.375 21.6424 34.0121 20.6249 33.3322C19.6074 32.6523 18.8143 31.686 18.346 30.5554C17.8777 29.4247 17.7551 28.1806 17.9939 26.9804C18.2326 25.7801 18.8219 24.6776 19.6873 23.8123C20.5526 22.9469 21.6551 22.3576 22.8554 22.1189C24.0556 21.8801 25.2997 22.0027 26.4304 22.471C27.561 22.9393 28.5273 23.7324 29.2072 24.7499C29.8871 25.7674 30.25 26.9637 30.25 28.1875C30.2464 29.8274 29.5933 31.3991 28.4337 32.5587C27.2741 33.7183 25.7024 34.3714 24.0625 34.375ZM24.0625 24.75C23.3826 24.75 22.718 24.9516 22.1527 25.3293C21.5874 25.707 21.1468 26.2439 20.8867 26.872C20.6265 27.5001 20.5584 28.1913 20.6911 28.8581C20.8237 29.5249 21.1511 30.1374 21.6318 30.6182C22.1126 31.0989 22.7251 31.4263 23.3919 31.559C24.0587 31.6916 24.7499 31.6235 25.378 31.3633C26.0061 31.1032 26.543 30.6626 26.9207 30.0973C27.2984 29.532 27.5 28.8674 27.5 28.1875C27.5 27.7361 27.4111 27.2891 27.2383 26.872C27.0656 26.455 26.8124 26.076 26.4932 25.7568C26.174 25.4376 25.795 25.1844 25.378 25.0117C24.9609 24.8389 24.5139 24.75 24.0625 24.75ZM39.1875 30.25C37.6918 30.25 36.2297 29.8065 34.986 28.9755C33.7424 28.1445 32.7731 26.9634 32.2007 25.5815C31.6283 24.1997 31.4785 22.6791 31.7703 21.2121C32.0621 19.7452 32.7824 18.3976 33.84 17.34C34.8976 16.2824 36.2452 15.5621 37.7121 15.2703C39.1791 14.9785 40.6997 15.1283 42.0815 15.7007C43.4634 16.2731 44.6445 17.2424 45.4755 18.486C46.3065 19.7297 46.75 21.1918 46.75 22.6875C46.7464 24.6921 45.9484 26.6135 44.531 28.031C43.1135 29.4484 41.1921 30.2464 39.1875 30.25ZM39.1875 17.875C38.2357 17.875 37.3052 18.1573 36.5138 18.6861C35.7224 19.2149 35.1056 19.9665 34.7413 20.8458C34.3771 21.7252 34.2818 22.6928 34.4675 23.6264C34.6532 24.5599 35.1115 25.4174 35.7845 26.0905C36.4576 26.7635 37.3151 27.2218 38.2486 27.4075C39.1822 27.5932 40.1498 27.4979 41.0292 27.1337C41.9085 26.7694 42.6601 26.1526 43.1889 25.3612C43.7178 24.5698 44 23.6393 44 22.6875C44 21.4111 43.493 20.1871 42.5905 19.2846C41.6879 18.382 40.4639 17.875 39.1875 17.875ZM50.875 52.25H27.5C27.1353 52.25 26.7856 52.1051 26.5277 51.8473C26.2699 51.5894 26.125 51.2397 26.125 50.875C26.125 50.5103 26.2699 50.1606 26.5277 49.9027C26.7856 49.6449 27.1353 49.5 27.5 49.5H49.5V41.8275C49.4964 39.8229 48.6984 37.9015 47.281 36.484C45.8635 35.0666 43.9421 34.2686 41.9375 34.265H36.4375C34.9817 34.2711 33.5586 34.6974 32.339 35.4925C31.1195 36.2876 30.1554 37.4179 29.5625 38.7475C29.4961 38.9231 29.3944 39.0832 29.2638 39.218C29.1332 39.3528 28.9763 39.4594 28.8029 39.5312C28.6295 39.6031 28.4432 39.6387 28.2555 39.6359C28.0679 39.633 27.8827 39.5918 27.7116 39.5147C27.5405 39.4376 27.3869 39.3262 27.2605 39.1875C27.134 39.0488 27.0372 38.8857 26.9762 38.7082C26.9151 38.5307 26.8911 38.3426 26.9055 38.1554C26.9199 37.9683 26.9725 37.7861 27.06 37.62C27.8689 35.8015 29.188 34.2568 30.8574 33.1732C32.5268 32.0895 34.4747 31.5135 36.465 31.515H41.965C44.7 31.515 47.3231 32.6015 49.257 34.5355C51.191 36.4694 52.2775 39.0925 52.2775 41.8275V50.875C52.2775 51.0579 52.2411 51.239 52.1703 51.4076C52.0995 51.5763 51.9957 51.7291 51.8651 51.8571C51.7345 51.9852 51.5797 52.0859 51.4096 52.1533C51.2396 52.2208 51.0579 52.2537 50.875 52.25Z" fill="white"/>
<path d="M33 52.25H15.125C14.7603 52.25 14.4106 52.1051 14.1527 51.8473C13.8949 51.5894 13.75 51.2397 13.75 50.875V46.0625C13.75 43.3275 14.8365 40.7044 16.7705 38.7705C18.7044 36.8365 21.3275 35.75 24.0625 35.75C26.7975 35.75 29.4206 36.8365 31.3545 38.7705C33.2885 40.7044 34.375 43.3275 34.375 46.0625V50.875C34.375 51.2397 34.2301 51.5894 33.9723 51.8473C33.7144 52.1051 33.3647 52.25 33 52.25ZM16.5 49.5H31.625V46.0625C31.625 44.0568 30.8282 42.1332 29.41 40.715C27.9918 39.2968 26.0682 38.5 24.0625 38.5C22.0568 38.5 20.1332 39.2968 18.715 40.715C17.2968 42.1332 16.5 44.0568 16.5 46.0625V49.5Z" fill="white"/>
<path d="M20.625 48.1242C20.2603 48.1242 19.9106 47.9794 19.6527 47.7215C19.3949 47.4636 19.25 47.1139 19.25 46.7492V43.9992C19.25 43.6345 19.3949 43.2848 19.6527 43.0269C19.9106 42.7691 20.2603 42.6242 20.625 42.6242C20.9897 42.6242 21.3394 42.7691 21.5973 43.0269C21.8551 43.2848 22 43.6345 22 43.9992V46.7492C22 47.1139 21.8551 47.4636 21.5973 47.7215C21.3394 47.9794 20.9897 48.1242 20.625 48.1242ZM45.375 47.918C45.0103 47.918 44.6606 47.7731 44.4027 47.5152C44.1449 47.2574 44 46.9076 44 46.543V43.793C44 43.4283 44.1449 43.0786 44.4027 42.8207C44.6606 42.5628 45.0103 42.418 45.375 42.418C45.7397 42.418 46.0894 42.5628 46.3473 42.8207C46.6051 43.0786 46.75 43.4283 46.75 43.793V46.543C46.75 46.9076 46.6051 47.2574 46.3473 47.5152C46.0894 47.7731 45.7397 47.918 45.375 47.918Z" fill="white"/>
</svg>
