<svg width="67" height="67" viewBox="0 0 67 67" fill="none" xmlns="http://www.w3.org/2000/svg">
<rect width="67" height="67" rx="18" fill="#4D84FF"/>
<path d="M42.0337 31.3877C41.7998 31.4992 41.602 31.6745 41.4634 31.8934C41.3247 32.1124 41.2507 32.366 41.25 32.6252V36.7502H30.25C29.8853 36.7502 29.5356 36.8951 29.2777 37.1529C29.0199 37.4108 28.875 37.7605 28.875 38.1252V40.8752C28.875 41.2399 29.0199 41.5896 29.2777 41.8475C29.5356 42.1054 29.8853 42.2502 30.25 42.2502H41.25V46.3752C41.2503 46.6395 41.3268 46.898 41.4703 47.1199C41.6137 47.3418 41.8181 47.5177 42.0589 47.6265C42.2997 47.7353 42.5667 47.7724 42.8281 47.7334C43.0894 47.6944 43.334 47.5809 43.5325 47.4065L51.7825 40.2152C51.9292 40.0864 52.0467 39.9278 52.1273 39.7499C52.2079 39.5721 52.2498 39.3792 52.25 39.184C52.245 38.9821 52.1956 38.7838 52.1053 38.6032C52.015 38.4226 51.886 38.2641 51.7275 38.139L43.4775 31.5802C43.279 31.4162 43.0385 31.3111 42.7832 31.2771C42.528 31.2431 42.2683 31.2814 42.0337 31.3877ZM23.9663 36.6127C24.2002 36.5013 24.398 36.326 24.5366 36.107C24.6753 35.8881 24.7493 35.6344 24.75 35.3752V31.2502H35.75C36.1147 31.2502 36.4644 31.1053 36.7223 30.8475C36.9801 30.5896 37.125 30.2399 37.125 29.8752V27.1252C37.125 26.7605 36.9801 26.4108 36.7223 26.1529C36.4644 25.8951 36.1147 25.7502 35.75 25.7502H24.75V21.6252C24.7497 21.361 24.6732 21.1024 24.5297 20.8805C24.3863 20.6586 24.1819 20.4827 23.9411 20.3739C23.7003 20.2651 23.4333 20.228 23.1719 20.267C22.9106 20.3061 22.666 20.4196 22.4675 20.594L14.2175 27.7852C14.0708 27.9141 13.9533 28.0727 13.8727 28.2505C13.7921 28.4283 13.7502 28.6212 13.75 28.8165C13.755 29.0183 13.8044 29.2166 13.8947 29.3972C13.985 29.5778 14.114 29.7363 14.2725 29.8615L22.5225 36.4202C22.721 36.5843 22.9615 36.6893 23.2168 36.7233C23.472 36.7574 23.7317 36.719 23.9663 36.6127Z" fill="white"/>
</svg>
