<svg width="67" height="67" viewBox="0 0 67 67" fill="none" xmlns="http://www.w3.org/2000/svg">
<rect width="67" height="67" rx="18" fill="#4D84FF"/>
<path d="M33.9987 31.1615C39.0554 31.1615 43.1927 27.0899 43.1927 21.9675C43.1927 16.9108 39.0554 12.7734 33.9987 12.7734C28.942 12.7734 24.8047 16.9108 24.8047 21.9675C24.8047 27.0899 29.0077 31.1615 33.9987 31.1615ZM33.9987 22.6242C32.3569 22.6242 30.9778 21.2451 30.9778 19.6033C30.9778 18.1585 31.9629 16.9764 33.342 16.6481V15.5973C33.342 15.269 33.6047 14.9406 33.9987 14.9406C34.3271 14.9406 34.6554 15.269 34.6554 15.5973V16.6481C35.9689 16.9764 37.0196 18.1585 37.0196 19.6033C37.0196 19.9316 36.7569 20.26 36.3629 20.26C36.0345 20.26 35.7062 19.9316 35.7062 19.6033C35.7062 18.6839 34.9838 17.9615 34.0644 17.8958H33.9987C33.0793 17.8958 32.3569 18.6839 32.3569 19.6033C32.3569 20.5227 33.145 21.3108 34.0644 21.3108C35.7062 21.3108 37.0853 22.6899 37.0853 24.3316C37.0853 25.7764 36.0345 27.0242 34.5898 27.2869V28.3376C34.5898 28.7316 34.2614 28.9943 33.933 28.9943C33.6047 28.9943 33.2763 28.7316 33.2763 28.3376V27.2212C31.9629 26.8928 31.0435 25.7107 31.0435 24.3316C31.0435 24.0033 31.3062 23.6749 31.7002 23.6749C32.0286 23.6749 32.3569 24.0033 32.3569 24.3316C32.3569 25.251 33.145 26.0391 34.0644 26.0391C34.9838 26.0391 35.7719 25.251 35.7719 24.3316C35.7719 23.4122 34.9181 22.6242 33.9987 22.6242Z" fill="white"/>
<path d="M49.3049 28.7975L43.3288 26.7617C43.2631 26.8274 43.0661 27.2871 42.672 27.8781C42.8034 27.9438 42.7377 27.8781 47.072 29.3886L34.0034 33.8543L20.9347 29.3886C25.4004 27.8125 25.2691 27.9438 25.3347 27.8781C25.0064 27.4184 24.678 26.8274 24.6123 26.7617L18.6362 28.7975C18.4392 28.8632 18.3079 28.9946 18.2422 29.1916L34.0034 34.6423L49.6989 29.2572C49.6332 29.0602 49.5019 28.8632 49.3049 28.7975Z" fill="white"/>
<path d="M32.7555 35.6273L17.1256 30.2422L14.0391 34.1168L28.8152 39.5676L32.7555 35.6273Z" fill="white"/>
<path d="M28.7501 40.9459L17.5859 36.8086V47.7758L33.3471 53.2265V36.9399L29.4725 40.8146C29.2755 40.9459 29.0128 41.0116 28.7501 40.9459ZM38.5352 40.8146L34.6606 36.9399V53.2265L50.4874 47.7758V36.8086L39.2576 40.9459C38.9949 41.0116 38.7322 40.9459 38.5352 40.8146Z" fill="white"/>
<path d="M50.8752 30.2422L35.1797 35.6273L39.1857 39.5676L50.8752 35.2332L53.9618 34.1168L50.8752 30.2422Z" fill="white"/>
</svg>
