<svg width="67" height="67" viewBox="0 0 67 67" fill="none" xmlns="http://www.w3.org/2000/svg">
<rect width="67" height="67" rx="18" fill="#4D84FF"/>
<path d="M30.9409 41.6802L27.788 38.5273L25.8438 40.4716L30.9409 45.5687L40.163 36.3466L38.2187 34.4023L30.9409 41.6802Z" fill="white"/>
<path d="M44 29.1407V24.375C44 21.4576 42.8411 18.6597 40.7782 16.5968C38.7153 14.5339 35.9174 13.375 33 13.375C30.0826 13.375 27.2847 14.5339 25.2218 16.5968C23.1589 18.6597 22 21.4576 22 24.375V29.1421C19.3502 31.9397 17.8739 35.6467 17.875 39.5C17.875 47.8517 24.6483 54.625 33 54.625C41.3545 54.625 48.125 47.8517 48.125 39.5C48.125 35.4864 46.5506 31.8495 44 29.1407ZM24.75 24.375C24.75 19.8251 28.4501 16.125 33 16.125C37.5499 16.125 41.25 19.8251 41.25 24.375V26.8335C38.7982 25.2278 35.9308 24.3733 33 24.375C30.0692 24.3733 27.2018 25.2278 24.75 26.8335V24.375ZM33 51.875C26.1649 51.875 20.625 46.3351 20.625 39.5C20.625 32.6649 26.1649 27.125 33 27.125C39.8351 27.125 45.375 32.6649 45.375 39.5C45.375 46.3351 39.8351 51.875 33 51.875Z" fill="white"/>
</svg>
