<svg width="67" height="67" viewBox="0 0 67 67" fill="none" xmlns="http://www.w3.org/2000/svg">
<rect width="67" height="67" rx="18" fill="#4D84FF"/>
<path d="M34 34.25C28.4863 34.25 24 29.7638 24 24.25C24 18.7363 28.4863 14.25 34 14.25C39.5138 14.25 44 18.7363 44 24.25C44 29.7638 39.5138 34.25 34 34.25ZM34 16.75C29.8637 16.75 26.5 20.1137 26.5 24.25C26.5 28.3862 29.8637 31.75 34 31.75C38.1362 31.75 41.5 28.3862 41.5 24.25C41.5 20.1137 38.1362 16.75 34 16.75Z" fill="white"/>
<path d="M34.5 29.5H33.5C32.7994 29.4972 32.1182 29.2692 31.5571 28.8497C30.9959 28.4301 30.5846 27.8412 30.3838 27.17C30.3331 27.0114 30.3146 26.8442 30.3295 26.6783C30.3443 26.5124 30.3922 26.3512 30.4702 26.2041C30.5482 26.057 30.6548 25.9269 30.7838 25.8216C30.9128 25.7162 31.0615 25.6377 31.2213 25.5907C31.381 25.5436 31.5486 25.5289 31.7141 25.5475C31.8796 25.5661 32.0397 25.6176 32.185 25.6989C32.3303 25.7803 32.4579 25.8898 32.5603 26.0212C32.6627 26.1525 32.7378 26.303 32.7812 26.4637C32.875 26.78 33.1713 27.0013 33.5 27.0013H34.5C34.6991 27.0013 34.89 26.9222 35.0308 26.7814C35.1715 26.6406 35.2506 26.4497 35.2506 26.2506C35.2506 26.0515 35.1715 25.8606 35.0308 25.7199C34.89 25.5791 34.6991 25.5 34.5 25.5H33.5C31.7075 25.5 30.25 24.0412 30.25 22.25C30.25 20.4587 31.7075 19 33.5 19H34.5C35.9012 19 37.1387 19.8925 37.5825 21.2225C37.637 21.3788 37.6599 21.5444 37.6498 21.7097C37.6398 21.8749 37.597 22.0365 37.524 22.1851C37.451 22.3337 37.3492 22.4663 37.2245 22.5752C37.0999 22.6841 36.9548 22.7672 36.7978 22.8196C36.6407 22.872 36.4749 22.8926 36.3098 22.8804C36.1447 22.8682 35.9837 22.8233 35.8361 22.7483C35.6885 22.6734 35.5572 22.5698 35.45 22.4437C35.3427 22.3176 35.2616 22.1715 35.2112 22.0137C35.162 21.8641 35.0667 21.7338 34.9389 21.6415C34.8112 21.5493 34.6576 21.4997 34.5 21.5H33.5C33.3011 21.5 33.1103 21.579 32.9697 21.7197C32.829 21.8603 32.75 22.0511 32.75 22.25C32.75 22.4489 32.829 22.6397 32.9697 22.7803C33.1103 22.921 33.3011 23 33.5 23H34.5C36.2925 23 37.75 24.4588 37.75 26.25C37.75 28.0413 36.2925 29.5 34.5 29.5Z" fill="white"/>
<path d="M34 20.5C33.6612 20.5 33.3487 20.3625 33.1125 20.1375C33.0625 20.075 33 20.0125 32.9625 19.9375C32.9129 19.8737 32.8749 19.8018 32.85 19.725C32.8141 19.654 32.7884 19.5782 32.7738 19.5C32.7625 19.4125 32.75 19.3375 32.75 19.25C32.75 18.925 32.8862 18.6 33.1125 18.3625C33.575 17.9 34.4125 17.9 34.8875 18.3625C35.1125 18.6 35.25 18.925 35.25 19.25C35.25 19.3375 35.2375 19.4125 35.2238 19.5C35.2107 19.5785 35.1854 19.6544 35.1488 19.725C35.1234 19.8016 35.0854 19.8734 35.0363 19.9375C34.9862 20.0125 34.9362 20.075 34.8862 20.1375C34.65 20.3625 34.325 20.5 34 20.5ZM34 30.5C33.6612 30.5 33.3487 30.3625 33.1125 30.1375C33.0625 30.075 33 30.0125 32.9625 29.9375C32.9129 29.8737 32.8749 29.8018 32.85 29.725C32.8141 29.654 32.7884 29.5782 32.7738 29.5C32.7625 29.4125 32.75 29.3375 32.75 29.25C32.75 28.925 32.8862 28.6 33.1125 28.3625C33.575 27.9 34.4125 27.9 34.8875 28.3625C35.1125 28.6 35.25 28.925 35.25 29.25C35.25 29.3375 35.2375 29.4125 35.2238 29.5C35.2107 29.5785 35.1854 29.6544 35.1488 29.725C35.1234 29.8016 35.0854 29.8734 35.0363 29.9375C34.9862 30.0125 34.9362 30.075 34.8862 30.1375C34.65 30.3625 34.325 30.5 34 30.5ZM36.5 51.75H16.5C16.1685 51.75 15.8505 51.6183 15.6161 51.3839C15.3817 51.1495 15.25 50.8315 15.25 50.5V39.25C15.25 38.9187 15.3812 38.6 15.6162 38.3662C15.9087 38.0725 18.5663 35.5 21.5 35.5C23.93 35.5 27.065 37.3363 28.1187 38H34C34.5471 38.0008 35.0875 38.1212 35.5832 38.3527C36.0789 38.5842 36.5181 38.9213 36.87 39.3403C37.2218 39.7593 37.4778 40.2501 37.6201 40.7784C37.7624 41.3067 37.7875 41.8597 37.6938 42.3987L47.5575 38.2887C48.1273 38.0507 48.747 37.9573 49.3616 38.0169C49.9762 38.0764 50.5665 38.287 51.08 38.63C51.5942 38.9718 52.0158 39.4357 52.3072 39.9801C52.5986 40.5245 52.7507 41.1325 52.75 41.75C52.7501 41.9685 52.6929 42.1832 52.5841 42.3727C52.4753 42.5622 52.3187 42.7199 52.13 42.83L37.13 51.58C36.9387 51.6913 36.7213 51.7499 36.5 51.75ZM17.75 49.25H36.1613L50.0863 41.1275C49.9891 40.9601 49.8549 40.8172 49.6937 40.71C49.5233 40.5942 49.3265 40.5232 49.1214 40.5033C48.9163 40.4834 48.7095 40.5154 48.52 40.5962L36.9825 45.4037C36.8296 45.4673 36.6656 45.5 36.5 45.5H26.5C26.1685 45.5 25.8505 45.3683 25.6161 45.1339C25.3817 44.8995 25.25 44.5815 25.25 44.25C25.25 43.9185 25.3817 43.6005 25.6161 43.3661C25.8505 43.1317 26.1685 43 26.5 43H34C34.3218 42.9856 34.6257 42.8476 34.8484 42.6148C35.0711 42.3819 35.1953 42.0722 35.1953 41.75C35.1953 41.4278 35.0711 41.1181 34.8484 40.8852C34.6257 40.6524 34.3218 40.5144 34 40.5H27.75C27.5037 40.5 27.2612 40.4262 27.0562 40.2912C26.1 39.6537 23.2337 38 21.5 38C20.1375 38 18.5663 39.1 17.75 39.7987V49.25Z" fill="white"/>
</svg>
